HIERARCHY
ROOT RootJoint
{
    OFFSET   0.000000   0.000000   0.000000
    CHANNELS 6 Xposition Yposition Zposition Xrotation Yrotation Zrotation
    JOINT pelvis_lowerback
    {
        OFFSET   0.000000   0.093605   0.000000
        CHANNELS 3 Xrotation Yrotation Zrotation
        JOINT lowerback_torso
        {
            OFFSET   0.000000   0.100000   0.000000
            CHANNELS 3 Xrotation Yrotation Zrotation
            JOINT torso_head
            {
                OFFSET   0.000000   0.282350   0.000000
                CHANNELS 3 Xrotation Yrotation Zrotation
                End Site
                {
                    OFFSET   0.000000   0.192650   0.000000
                }
            }
            JOINT rTorso_Clavicle
            {
                OFFSET  -0.001000   0.157500   0.000000
                CHANNELS 3 Xrotation Yrotation Zrotation
                JOINT rShoulder
                {
                    OFFSET  -0.117647   0.000000   0.000000
                    CHANNELS 3 Xrotation Yrotation Zrotation
                    JOINT rElbow
                    {
                        OFFSET  -0.245000   0.000000   0.000000
                        CHANNELS 3 Xrotation Yrotation Zrotation
                        JOINT rWrist
                        {
                            OFFSET  -0.240000   0.000000   0.000000
                            CHANNELS 3 Xrotation Yrotation Zrotation
                            End Site
                            {
                                OFFSET  -0.116353  -0.002500   0.000000
                            }
                        }
                    }
                }
            }
            JOINT lTorso_Clavicle
            {
                OFFSET   0.001000   0.157500   0.000000
                CHANNELS 3 Xrotation Yrotation Zrotation
                JOINT lShoulder
                {
                    OFFSET   0.117647   0.000000   0.000000
                    CHANNELS 3 Xrotation Yrotation Zrotation
                    JOINT lElbow
                    {
                        OFFSET   0.245000   0.000000   0.000000
                        CHANNELS 3 Xrotation Yrotation Zrotation
                        JOINT lWrist
                        {
                            OFFSET   0.240000   0.000000   0.000000
                            CHANNELS 3 Xrotation Yrotation Zrotation
                            End Site
                            {
                                OFFSET   0.116353  -0.002500   0.000000
                            }
                        }
                    }
                }
            }
        }
    }
    JOINT rHip
    {
        OFFSET  -0.100000  -0.051395   0.000000
        CHANNELS 3 Xrotation Yrotation Zrotation
        JOINT rKnee
        {
            OFFSET   0.000000  -0.410000   0.000000
            CHANNELS 3 Xrotation Yrotation Zrotation
            JOINT rAnkle
            {
                OFFSET   0.000000  -0.390000   0.000000
                CHANNELS 3 Xrotation Yrotation Zrotation
                JOINT rToeJoint
                {
                    OFFSET   0.000000  -0.050000   0.130000
                    CHANNELS 3 Xrotation Yrotation Zrotation
                    End Site
                    {
                        OFFSET  -0.010000   0.002000   0.060000
                    }
                }
            }
        }
    }
    JOINT lHip
    {
        OFFSET   0.100000  -0.051395   0.000000
        CHANNELS 3 Xrotation Yrotation Zrotation
        JOINT lKnee
        {
            OFFSET   0.000000  -0.410000   0.000000
            CHANNELS 3 Xrotation Yrotation Zrotation
            JOINT lAnkle
            {
                OFFSET   0.000000  -0.390000   0.000000
                CHANNELS 3 Xrotation Yrotation Zrotation
                JOINT lToeJoint
                {
                    OFFSET   0.000000  -0.050000   0.130000
                    CHANNELS 3 Xrotation Yrotation Zrotation
                    End Site
                    {
                        OFFSET   0.010000   0.002000   0.060000
                    }
                }
            }
        }
    }
}
MOTION
Frames: 15
Frame Time:   0.008333
 -2.376719   0.925631   3.975860   0.000000   0.000000   0.000000   0.000000   0.000000   0.000000   0.000000   0.000000   0.000000   0.000000   0.000000   0.000000   0.000000   0.000000   0.000000   0.000000   0.000000   0.000000   0.000000   0.000000   0.000000   0.000000   0.000000   0.000000   0.000000   0.000000   0.000000   0.000000   0.000000   0.000000   0.000000   0.000000   0.000000   0.000000   0.000000   0.000000   0.000000   0.000000   0.000000   0.000000   0.000000   0.000000   0.000000   0.000000   0.000000   0.000000   0.000000   0.000000   0.000000   0.000000   0.000000   0.000000   0.000000   0.000000   0.000000   0.000000   0.000000   0.000000   0.000000   0.000000
 -2.376779   0.926345   3.976105  -0.905793   0.138772  -0.174269   0.917767  -0.028468   0.164805   0.322865  -0.180198   0.083024  -0.231027   0.105339   0.060169   0.149206  -0.176877   0.383841   0.660212   0.185111   2.045083   0.022309   1.017292  -0.010333   0.502685  -0.543666  -2.959087   0.191873   0.108879  -0.766475   0.830901  -0.009686  -1.899944   0.025356  -1.113418   0.013431   0.530749   0.549233   3.135876   0.780077  -0.009391   0.068763   0.665660   0.000629   0.000733  -0.583010  -0.256125   0.022415  -0.444320  -0.000329   0.000498   0.814431   0.008908   0.367098   0.785926  -0.001301   0.001006  -0.964618   0.167602  -0.053347   0.304935  -0.000366   0.000829
 -2.376882   0.927546   3.976324  -1.861048   0.327056  -0.356755   1.810310  -0.088015   0.333654   0.736575  -0.392455   0.175721  -0.418095   0.205477   0.138692   0.297614  -0.273275   1.516169   1.295644   0.466308   4.689114   0.051896   2.016921  -0.018382   1.033742  -0.772746  -5.182889   0.383847   0.104123  -2.319216   1.636420  -0.148367  -4.442954   0.059392  -2.208564   0.024093   1.095218   0.766781   5.511947   1.542876  -0.021937   0.039000   1.413239   0.001965   0.001647  -1.126080  -0.498133   0.040044  -0.888813  -0.001053   0.000673   1.691267   0.038586   0.887554   1.672109  -0.003544   0.002503  -1.864048   0.330497  -0.098674   0.550935  -0.000898   0.001463
 -2.377038   0.928772   3.976531  -2.770423   0.532648  -0.519105   2.647117  -0.167198   0.478900   1.138332  -0.617746   0.243674  -0.589247   0.298704   0.222769   0.434018  -0.300675   3.113183   1.899310   0.822721   7.732052   0.081109   2.968296  -0.023814   1.553219  -0.847640  -6.527209   0.557961   0.006927  -4.370809   2.376458  -0.381807  -7.271670   0.092797  -3.256220   0.031420   1.649108   0.792107   6.902144   2.224962  -0.038839  -0.097013   2.123157   0.003554   0.002325  -1.632567  -0.725202   0.053420  -1.302871  -0.001928   0.000697   2.561230   0.084193   1.506272   2.534504  -0.006061   0.003967  -2.702038   0.485576  -0.137427   0.774035  -0.001494   0.001941
 -2.377258   0.929682   3.976760  -3.618903   0.738911  -0.659731   3.428756  -0.258688   0.594188   1.510924  -0.847904   0.281264  -0.751651   0.385362   0.305170   0.556716  -0.282015   4.972473   2.470444   1.241508  11.042975   0.106354   3.867519  -0.027144   2.058788  -0.831032  -7.210979   0.709377  -0.150751  -6.699054   3.049508  -0.685384 -10.212841   0.121287  -4.251402   0.036111   2.190610   0.690750   7.554873   2.824374  -0.060088  -0.321669   2.776498   0.005091   0.002688  -2.106335  -0.938272   0.063158  -1.690556  -0.002813   0.000672   3.411488   0.142980   2.199143   3.353037  -0.008507   0.005217  -3.484368   0.632544  -0.170409   0.972396  -0.002047   0.002248
 -2.377504   0.930014   3.977037  -4.406824   0.937246  -0.784333   4.158226  -0.357680   0.686806   1.854017  -1.077759   0.304570  -0.905621   0.465864   0.378427   0.666657  -0.235343   7.005150   2.981990   1.691422  14.386059   0.125627   4.714632  -0.028637   2.549548  -0.749785  -7.371914   0.836500  -0.343733  -9.161859   3.657536  -1.038080 -13.164839   0.143097  -5.192166   0.038794   2.717230   0.505530   7.702271   3.349243  -0.084865  -0.617332   3.374591   0.006442   0.002778  -2.549674  -1.138055   0.069922  -2.052983  -0.003632   0.000636   4.239107   0.212937   2.947398   4.127151  -0.010677   0.006204  -4.214979   0.771471  -0.198263   1.148339  -0.002503   0.002407
 -2.377748   0.929574   3.977376  -5.137909   1.122118  -0.896248   4.838405  -0.461597   0.764073   2.170171  -1.304966   0.320346  -1.050555   0.540755   0.443720   0.765309  -0.177189   9.111417   3.432509   2.152119  17.655625   0.138532   5.509403  -0.028701   3.022237  -0.630175  -7.183767   0.940411  -0.552383 -11.660924   4.203929  -1.421382 -16.061082   0.157937  -6.078028   0.039960   3.225629   0.267922   7.520662   3.808442  -0.112127  -0.970093   3.922344   0.007548   0.002659  -2.964432  -1.325292   0.074211  -2.390536  -0.004336   0.000608   5.043176   0.292500   3.733258   4.859414  -0.012476   0.006927  -4.897187   0.902461  -0.221661   1.305377  -0.002845   0.002453
 -2.377812   0.927614   3.977231  -5.426076   1.260827  -0.988892   5.173818  -0.577761   0.890044   2.355090  -1.512514   0.282198  -1.328208   0.437222   0.420316   0.950009   0.008715  10.612021   3.927767   2.591333  20.573287   0.144872   6.360817  -0.030099   3.412230  -0.488019  -5.865893   1.228979  -0.777226 -13.287037   4.582923  -1.762084 -19.043684   0.166213  -7.022021   0.041509   3.665964  -0.127348   6.382356   3.746567  -0.487897  -1.356758   4.475762   0.008342   0.000652  -3.016617  -1.538488   0.251555  -2.367476  -0.003402   0.000393   5.408732   0.451202   4.432239   5.032912  -0.010815   0.006068  -5.277516   1.063998  -0.352436   1.487919  -0.002978   0.002687
 -2.377803   0.924398   3.976908  -5.647105   1.390517  -1.070591   5.511104  -0.685532   1.020884   2.497632  -1.700359   0.242132  -1.607057   0.331776   0.392411   1.102068   0.219227  11.772653   4.362421   3.039219  23.129064   0.143320   7.165085  -0.030555   3.793040  -0.300151  -4.704624   1.482175  -1.005322 -14.577535   4.918667  -2.098479 -21.682664   0.165238  -7.909088   0.041802   4.089122  -0.567134   5.354917   3.648324  -0.858003  -1.738747   4.967552   0.008611  -0.000822  -3.060068  -1.741997   0.416049  -2.307523  -0.002551   0.000075   5.658220   0.601293   5.073005   5.079178  -0.008857   0.004987  -5.636566   1.215796  -0.473539   1.657444  -0.002974   0.002785
 -2.377759   0.920072   3.976525  -5.841488   1.511679  -1.146290   5.847295  -0.776430   1.149931   2.632650  -1.866166   0.205900  -1.865668   0.232773   0.366685   1.227262   0.433289  12.692304   4.743868   3.480394  25.394932   0.137028   7.920689  -0.030270   4.159322  -0.098620  -3.823085   1.703025  -1.226812 -15.626855   5.215287  -2.423638 -24.033827   0.158611  -8.739017   0.040987   4.491911  -0.997957   4.585761   3.562446  -1.203203  -2.103011   5.419407   0.008551  -0.001835  -3.100253  -1.932438   0.569248  -2.249557  -0.001885  -0.000160   5.832818   0.740195   5.665835   5.083954  -0.007105   0.004002  -5.973289   1.357910  -0.585600   1.810312  -0.002866   0.002763
 -2.377684   0.919127   3.976578  -6.185022   1.276060  -0.665402   6.246794  -0.738645   0.797485   2.835019  -1.931414  -0.026651  -2.101257   0.143689   0.326732   1.317371   0.685878  13.753592   5.067484   3.940666  27.557541   0.130383   8.630939  -0.029131   4.512948   0.096401  -3.176744   1.912872  -1.414233 -16.687768   5.485611  -2.710877 -26.184520   0.150208  -9.492226   0.039472   4.865658  -1.302286   4.094842   3.618526  -1.501942  -2.948649   5.852008   0.007958  -0.003618  -3.125419  -2.111836   0.709285  -2.108420  -0.001233  -0.000999   5.987117   0.850962   5.175827   5.535076  -0.005685   0.003013  -5.889693   1.404248  -1.035097   0.849129  -0.006030   0.002328
 -2.378172   0.918718   3.976893  -6.456171   1.025476  -0.498570   6.560237  -0.705809   0.741986   3.000201  -1.976270  -0.177631  -2.314724   0.059894   0.279915   1.401347   0.912245  14.595580   5.357469   4.376681  29.527848   0.121831   9.299048  -0.027202   4.852130   0.325996  -2.522282   2.125813  -1.561684 -17.613574   5.739107  -2.972627 -28.209489   0.139878 -10.196351   0.037387   5.220015  -1.595730   3.566457   3.645599  -1.799760  -3.333724   6.254601   0.006840  -0.004953  -3.153324  -2.280246   0.840617  -2.012446  -0.000925  -0.001410   6.154607   0.979624   5.026926   5.881919  -0.004671   0.002163  -5.986314   1.504616  -1.220529   0.661227  -0.005072   0.001834
 -2.379080   0.918558   3.977282  -6.662061   0.895991  -0.466567   6.829227  -0.720170   0.780327   3.129728  -2.046583  -0.254257  -2.519501  -0.020471   0.248538   1.485321   1.104293  15.295419   5.621567   4.775214  31.312725   0.112027   9.918301  -0.025056   5.172859   0.535787  -1.963967   2.320315  -1.699972 -18.407254   5.968253  -3.220761 -30.059409   0.128401 -10.853836   0.034859   5.557583  -1.877488   3.104061   3.690962  -2.026113  -3.375894   6.607927   0.005318  -0.005117  -3.328470  -2.349232   1.053426  -1.930807  -0.000896  -0.001442   6.287031   1.107807   5.061704   6.133670  -0.003892   0.001783  -6.103890   1.624020  -1.344382   0.785802  -0.004002   0.001616
 -2.380365   0.918237   3.977554  -6.685919   0.834895  -0.320972   6.946362  -0.740214   0.560751   3.217955  -2.096398  -0.259634  -2.680419  -0.108713   0.307251   1.573941   1.179487  15.679471   5.804051   5.135348  32.703234   0.099749  10.534526  -0.022692   5.431898   0.841032  -0.821812   2.559890  -1.790759 -18.687141   6.017401  -3.474629 -31.561606   0.117162 -11.653310   0.032213   5.844658  -2.180315   2.054617   3.750971  -2.253233  -3.429383   6.443353   0.004447  -0.003701  -3.529236  -2.423831   1.176294  -1.787992  -0.001013  -0.001585   6.223403   1.198872   5.000724   6.359914  -0.003269   0.001565  -6.252192   1.651681  -1.403190   0.963179  -0.003240   0.001431
 -2.381773   0.918333   3.977755  -6.670430   0.864672  -0.366479   7.068846  -0.769909   0.501611   3.284823  -2.153362  -0.210063  -2.829303  -0.189968   0.365904   1.643174   1.244437  15.799823   5.967630   5.455109  33.813070   0.086509  11.104632  -0.020562   5.673705   1.116365   0.056356   2.756677  -1.887742 -18.741169   6.045527  -3.713391 -32.804239   0.104057 -12.408674   0.029341   6.116447  -2.526023   1.258389   3.762139  -2.479858  -3.314580   6.398431   0.003595  -0.002883  -3.445566  -2.515506   1.260464  -1.673154  -0.000963  -0.001560   6.160630   1.263718   5.157097   6.477875  -0.002711   0.001366  -6.467923   1.667600  -1.426471   1.135313  -0.002704   0.001317
